<?xml version="1.0" standalone="no"?>
<!DOCTYPE svg PUBLIC "-//W3C//DTD SVG 20010904//EN"
 "http://www.w3.org/TR/2001/REC-SVG-20010904/DTD/svg10.dtd">
<svg version="1.0" xmlns="http://www.w3.org/2000/svg"
 width="619.000000pt" height="444.000000pt" viewBox="0 0 619.000000 444.000000"
 preserveAspectRatio="xMidYMid meet">

<g transform="translate(0.000000,444.000000) scale(0.100000,-0.100000)"
fill="#000000" stroke="none">
<path d="M2715 4369 c-150 -12 -439 -55 -560 -84 -234 -55 -261 -65 -250 -94
13 -32 75 -289 94 -386 41 -208 45 -239 81 -554 11 -95 23 -177 26 -182 3 -5
427 -9 979 -9 l975 0 4 23 c3 12 12 90 21 172 36 342 78 580 146 838 17 65 29
120 27 123 -10 10 -216 65 -313 83 -150 29 -374 59 -524 71 -157 12 -547 11
-706 -1z m918 -384 c36 -116 46 -227 26 -300 -20 -72 -122 -156 -244 -200 -94
-33 -278 -85 -283 -80 -7 7 35 68 65 96 15 14 58 44 95 68 60 38 129 114 116
127 -3 3 -25 -8 -49 -24 -24 -15 -74 -41 -111 -56 -129 -53 -168 -101 -191
-232 l-14 -79 -17 38 c-40 91 -41 198 -3 289 21 50 92 134 145 173 26 19 106
60 177 92 140 61 187 87 231 128 32 30 36 27 57 -40z m-804 -320 c19 -9 44
-28 57 -42 28 -30 60 -131 46 -145 -12 -12 -102 29 -109 49 -3 7 -12 13 -20
13 -23 0 15 -58 59 -90 21 -15 34 -30 31 -34 -13 -12 -79 -5 -120 14 -45 20
-96 87 -108 141 -4 16 -20 40 -37 54 -17 14 -27 29 -24 33 34 34 166 38 225 7z"/>
<path d="M1736 2954 c-9 -8 -16 -18 -17 -22 0 -4 -2 -16 -5 -27 -6 -28 3 -61
22 -79 14 -14 152 -16 1365 -16 1336 0 1349 0 1369 20 13 13 20 33 20 60 0 27
-7 47 -20 60 -20 20 -33 20 -1369 20 -1214 0 -1351 -2 -1365 -16z"/>
<path d="M3665 2716 c-114 -37 -196 -100 -257 -196 -114 -181 -79 -418 83
-564 117 -105 285 -141 435 -95 131 41 223 121 281 246 32 69 35 73 67 73 49
0 61 21 60 104 -1 91 -14 116 -59 116 -32 0 -35 4 -69 73 -44 92 -128 175
-223 220 -61 28 -79 32 -173 34 -67 2 -119 -2 -145 -11z m268 -93 c138 -55
227 -188 227 -339 0 -66 -5 -86 -35 -149 -111 -234 -410 -283 -594 -98 -74 76
-101 143 -101 256 0 69 4 91 28 142 47 98 143 178 247 206 48 13 175 3 228
-18z"/>
<path d="M2480 2350 c-27 -27 -26 -71 3 -98 32 -30 71 -28 97 5 25 32 21 79
-7 101 -25 18 -70 15 -93 -8z"/>
<path d="M4315 2148 c-27 -15 -35 -28 -35 -59 0 -32 26 -65 58 -74 17 -5 30 1
52 24 36 36 38 64 5 96 -26 27 -49 31 -80 13z"/>
<path d="M4296 1964 c-34 -34 -8 -88 39 -82 40 4 57 48 30 78 -22 24 -48 26
-69 4z"/>
<path d="M2723 1876 c-56 -18 -110 -50 -218 -131 -50 -36 -124 -83 -164 -103
-69 -34 -82 -37 -160 -37 -90 0 -141 17 -230 76 l-35 23 27 -44 c42 -72 141
-174 214 -222 102 -68 162 -95 270 -124 82 -22 119 -27 223 -27 107 0 136 4
205 27 95 30 163 73 196 121 13 19 27 35 31 35 4 0 14 -12 23 -27 25 -42 98
-93 170 -119 217 -79 489 -40 715 101 61 38 199 180 230 235 l24 45 -24 -18
c-14 -9 -52 -32 -85 -49 -55 -30 -68 -33 -150 -33 -82 0 -97 3 -155 32 -36 18
-112 66 -170 108 -155 113 -209 139 -296 139 -63 0 -77 -3 -129 -34 -31 -19
-79 -59 -105 -88 l-47 -53 -64 64 c-36 35 -84 74 -108 86 -54 28 -133 35 -188
17z"/>
<path d="M641 1223 c-11 -24 -10 -29 9 -43 l21 -16 -29 -59 c-78 -159 -122
-255 -122 -267 0 -14 116 -71 169 -83 39 -8 92 9 121 40 25 27 41 91 29 121
-5 15 1 28 27 53 43 43 52 88 28 138 -16 32 -35 46 -119 90 -55 29 -105 52
-111 53 -6 0 -16 -12 -23 -27z m156 -119 c73 -55 16 -122 -72 -82 -29 13 -30
15 -11 59 24 58 34 61 83 23z m-97 -144 c19 0 70 -53 70 -73 0 -32 -29 -57
-67 -57 -31 0 -93 24 -93 35 0 3 12 28 26 56 18 34 31 48 41 45 8 -3 18 -6 23
-6z"/>
<path d="M5345 1114 c-56 -21 -68 -35 -56 -67 9 -24 13 -26 36 -17 24 9 27 7
41 -28 8 -20 34 -81 56 -135 l41 -97 -22 -24 c-20 -21 -21 -27 -9 -45 7 -12
17 -21 22 -21 5 0 72 25 148 57 158 64 151 54 103 161 -25 54 -38 61 -70 38
-18 -13 -18 -15 -1 -56 18 -47 16 -52 -29 -68 -16 -5 -38 -13 -47 -17 -20 -8
-35 19 -103 190 -26 66 -53 125 -59 131 -8 9 -21 8 -51 -2z"/>
<path d="M1083 967 c-32 -40 -66 -81 -76 -92 -11 -11 -40 -46 -65 -78 -40 -51
-50 -58 -75 -54 -23 3 -31 -1 -43 -25 l-15 -28 46 -20 c61 -26 72 -25 89 8 27
51 72 95 92 89 95 -29 99 -33 99 -79 0 -35 -3 -42 -18 -40 -19 3 -44 -45 -30
-59 4 -4 40 -19 78 -33 65 -24 71 -24 83 -9 18 25 15 51 -8 58 -19 6 -20 15
-20 166 0 153 1 159 20 159 24 0 43 39 28 57 -5 6 -36 21 -68 31 l-59 20 -58
-71z m63 -99 c-4 -51 -6 -53 -32 -51 -39 3 -50 18 -30 39 10 9 24 27 33 40 24
38 33 28 29 -28z"/>
<path d="M5055 1011 l-50 -18 -5 -196 c-3 -107 -7 -198 -10 -200 -3 -3 -28
-12 -57 -20 l-52 -16 -31 35 c-16 19 -37 46 -46 60 -16 23 -16 26 5 48 48 51
32 149 -30 182 -38 19 -85 16 -219 -17 -91 -22 -95 -25 -84 -67 5 -18 12 -22
36 -20 l30 3 44 -175 c25 -96 47 -176 49 -178 2 -2 18 -1 35 3 29 6 32 10 27
39 -2 17 -12 60 -22 95 -17 65 -13 80 22 81 11 0 102 -101 133 -149 l16 -23
114 36 115 36 -3 79 -4 78 48 17 c66 22 85 20 112 -15 20 -25 21 -30 8 -35
-18 -7 -21 -45 -5 -61 8 -8 31 -4 85 14 64 21 74 28 74 48 0 28 -16 41 -46 37
-17 -2 -37 17 -90 85 -37 48 -81 103 -97 122 -27 31 -28 36 -13 47 12 8 15 20
10 38 -7 31 -27 32 -99 7z m58 -150 c33 -47 34 -57 5 -65 -45 -12 -48 -8 -48
49 0 30 3 55 8 55 4 0 19 -18 35 -39z m-365 -43 c16 -16 15 -63 0 -75 -12 -9
-86 -33 -101 -33 -6 0 -27 66 -27 87 0 26 105 44 128 21z"/>
<path d="M1346 934 c-11 -30 -6 -44 20 -54 18 -7 24 -15 20 -28 -37 -123 -77
-281 -79 -309 -2 -32 1 -37 26 -44 33 -9 35 -4 63 104 18 72 30 85 61 69 14
-8 21 -32 32 -109 7 -54 16 -101 19 -105 8 -7 213 -61 217 -56 1 2 14 28 28
58 40 86 35 83 110 70 64 -12 67 -13 69 -41 0 -16 1 -35 2 -41 1 -7 -4 -13
-11 -13 -20 0 -35 -21 -31 -46 3 -21 11 -25 82 -37 43 -7 80 -11 81 -10 2 2 6
15 10 30 6 24 3 29 -19 38 -15 5 -29 15 -31 22 -4 10 -45 279 -45 292 0 2 9 6
20 9 16 4 39 52 29 61 -2 2 -34 10 -71 19 -50 11 -70 12 -76 3 -16 -21 -112
-184 -112 -190 0 -5 -65 -114 -86 -144 -1 -2 -24 3 -50 11 -52 15 -52 15 -69
123 -5 39 -4 42 21 48 14 4 39 21 55 39 48 52 35 147 -24 179 -19 10 -230 68
-247 68 -4 0 -11 -7 -14 -16z m202 -106 c40 -20 48 -42 29 -72 -19 -28 -41
-32 -100 -15 -36 10 -38 12 -32 42 14 68 15 70 47 63 17 -3 42 -12 56 -18z
m356 -159 c3 -17 6 -42 6 -55 0 -21 -3 -24 -27 -18 -16 4 -31 10 -36 13 -8 7
33 91 44 91 4 0 9 -14 13 -31z"/>
<path d="M1842 914 c-12 -8 -27 -24 -32 -35 -9 -16 -7 -21 12 -28 15 -6 29 -4
42 5 16 11 23 10 51 -12 17 -13 41 -24 53 -24 24 0 82 46 82 65 0 18 -39 26
-60 13 -14 -9 -25 -6 -52 10 -42 26 -66 28 -96 6z"/>
<path d="M4380 828 c-25 -5 -48 -13 -52 -17 -4 -3 6 -76 22 -160 17 -85 30
-158 30 -163 0 -5 -11 -20 -25 -33 -30 -31 -103 -35 -128 -7 -8 9 -23 58 -32
107 -30 165 -30 161 -6 168 25 6 30 54 6 63 -18 7 -153 -15 -160 -26 -13 -21
7 -59 33 -62 24 -3 26 -8 47 -123 25 -137 42 -177 88 -206 62 -39 190 -8 228
55 24 39 24 76 -2 210 -21 113 -20 136 6 136 12 0 15 8 13 32 -4 37 -9 39 -68
26z"/>
<path d="M2251 749 c-18 -6 -55 -32 -81 -58 -38 -39 -50 -59 -60 -103 -26
-116 17 -215 114 -263 48 -23 66 -27 120 -23 80 5 133 37 173 105 24 41 28 59
28 123 0 61 -5 83 -24 117 -52 90 -164 132 -270 102z m151 -85 c88 -45 96
-197 13 -262 -56 -44 -149 -36 -200 18 -37 38 -47 127 -21 181 38 78 126 104
208 63z"/>
<path d="M3800 741 l-135 -16 -3 -40 c-2 -22 1 -58 5 -80 8 -36 12 -40 42 -43
l34 -3 -6 49 c-6 49 -6 50 25 56 18 3 35 3 39 -1 10 -11 41 -282 34 -294 -4
-5 -15 -9 -26 -9 -17 0 -20 -6 -17 -32 3 -33 4 -33 51 -31 80 2 80 2 72 91 -4
42 -13 122 -20 177 -8 55 -11 103 -7 107 4 4 21 8 37 10 25 2 31 -1 33 -19 3
-19 10 -23 39 -23 l35 0 -7 53 c-4 28 -9 55 -12 60 -6 10 -53 7 -213 -12z"/>
<path d="M3449 708 c-9 -7 -28 -58 -43 -113 -59 -208 -79 -259 -106 -265 -20
-5 -25 -12 -25 -35 0 -30 0 -30 60 -30 57 0 60 1 63 25 1 14 10 49 18 78 15
49 18 52 49 52 18 0 47 3 64 6 29 6 32 4 47 -32 15 -35 15 -39 0 -50 -17 -12
-22 -59 -8 -68 4 -3 43 -2 85 1 l77 6 0 33 c0 31 -3 34 -30 34 -20 0 -33 6
-36 18 -4 9 -26 67 -51 127 -56 137 -60 155 -39 155 12 0 16 9 16 35 l0 35
-63 0 c-36 0 -70 -5 -78 -12z m64 -155 c23 -63 23 -63 -18 -63 -27 0 -35 4
-35 18 0 27 20 92 28 92 5 0 16 -21 25 -47z"/>
<path d="M2800 675 c0 -31 3 -35 25 -35 l25 0 2 -187 3 -188 60 0 60 0 3 32
c3 28 0 32 -25 35 l-28 3 -3 118 c-1 64 1 117 5 117 4 -1 51 -69 104 -153 93
-148 96 -152 130 -152 l34 0 3 188 2 187 25 0 c22 0 25 4 25 35 l0 36 -57 -3
-58 -3 -3 -142 c-1 -79 -6 -143 -10 -143 -7 0 -74 98 -152 223 l-42 67 -64 0
-64 0 0 -35z"/>
</g>
</svg>
